<svg width="32" height="19" viewBox="0 0 32 19" fill="none" xmlns="http://www.w3.org/2000/svg">
<path d="M21.8906 0.773438L21.3438 1.25195C21.0703 1.59375 21.0703 2.07227 21.3438 2.41406L27.0859 8.08789L1.38281 8.08789C0.972656 8.08789 0.5625 8.49805 0.5625 8.9082V9.5918C0.5625 10.0703 0.972656 10.4121 1.38281 10.4121L27.0859 10.4121L21.3438 16.1543C21.0703 16.4961 21.0703 16.9746 21.3438 17.3164L21.8906 17.7949C22.1641 18.1367 22.7109 18.1367 22.9844 17.7949L30.9824 9.86523C31.3242 9.52344 31.3242 9.04492 30.9824 8.70313L22.9844 0.773438C22.7109 0.431641 22.1641 0.431641 21.8906 0.773438Z" fill="white"/>
</svg>
