<svg width="19" height="19" viewBox="0 0 19 19" fill="none" xmlns="http://www.w3.org/2000/svg">
<path fill-rule="evenodd" clip-rule="evenodd" d="M9.50521 1.58203C13.8776 1.58203 17.4219 5.12632 17.4219 9.4987C17.4219 13.8711 13.8776 17.4154 9.50521 17.4154C5.13283 17.4154 1.58854 13.8711 1.58854 9.4987C1.58854 5.12632 5.13283 1.58203 9.50521 1.58203ZM8.15383 11.314C8.00962 11.4633 7.92983 11.6633 7.93163 11.8708C7.93344 12.0784 8.01669 12.277 8.16348 12.4238C8.31026 12.5705 8.50882 12.6538 8.71639 12.6556C8.92396 12.6574 9.12394 12.5776 9.27325 12.4334L11.6482 10.0584C11.7967 9.90995 11.88 9.70862 11.88 9.4987C11.88 9.28878 11.7967 9.08745 11.6482 8.93899L9.27325 6.56399C9.20022 6.48838 9.11286 6.42807 9.01628 6.38658C8.91969 6.34509 8.81581 6.32325 8.71069 6.32233C8.60557 6.32142 8.50133 6.34145 8.40404 6.38126C8.30674 6.42106 8.21835 6.47985 8.14402 6.55418C8.06969 6.62851 8.01091 6.7169 7.9711 6.81419C7.93129 6.91149 7.91126 7.01573 7.91218 7.12085C7.91309 7.22597 7.93493 7.32985 7.97642 7.42644C8.01791 7.52302 8.07822 7.61038 8.15383 7.68341L9.96912 9.4987L8.15383 11.314Z" fill="#FE6700"/>
</svg>
