<svg width="13" height="17" viewBox="0 0 13 17" fill="none" xmlns="http://www.w3.org/2000/svg">
<path fill-rule="evenodd" clip-rule="evenodd" d="M6.49888 15.7741L7.06979 15.1308C7.7176 14.3889 8.30027 13.685 8.81869 13.0155L9.24665 12.4509C11.0336 10.0433 11.9275 8.13248 11.9275 6.72015C11.9275 3.70548 9.49727 1.26172 6.49888 1.26172C3.5005 1.26172 1.07031 3.70548 1.07031 6.72015C1.07031 8.13248 1.96422 10.0433 3.75112 12.4509L4.17907 13.0155C4.91866 13.9631 5.69244 14.8827 6.49888 15.7741Z" stroke="#E3E3E3" stroke-linecap="round" stroke-linejoin="round"/>
<path d="M6.49628 8.9535C7.7455 8.9535 8.75818 7.94081 8.75818 6.69159C8.75818 5.44238 7.7455 4.42969 6.49628 4.42969C5.24706 4.42969 4.23438 5.44238 4.23438 6.69159C4.23438 7.94081 5.24706 8.9535 6.49628 8.9535Z" stroke="#E3E3E3" stroke-linecap="round" stroke-linejoin="round"/>
</svg>
