<svg width="15" height="11" viewBox="0 0 15 11" fill="none" xmlns="http://www.w3.org/2000/svg">
<path d="M2.79353 0.0351563H12.2042C12.7083 0.0351233 13.1932 0.227957 13.5595 0.5741C13.9259 0.920242 14.1459 1.39345 14.1744 1.89666L14.1775 2.00837V8.99051C14.1775 9.49453 13.9847 9.97945 13.6385 10.3458C13.2924 10.7121 12.8192 10.9322 12.316 10.9607L12.2042 10.9637H2.79353C2.28951 10.9638 1.8046 10.7709 1.43824 10.4248C1.07189 10.0786 0.851883 9.60543 0.823348 9.10223L0.820313 8.99051V2.00837C0.82028 1.50436 1.01311 1.01944 1.35926 0.653088C1.7054 0.286736 2.17861 0.0667269 2.68181 0.038192L2.79353 0.0351563ZM13.2667 3.62033L7.70896 6.51033C7.65512 6.53831 7.59624 6.55525 7.53576 6.56015C7.47529 6.56505 7.41445 6.55781 7.35681 6.53887L7.28881 6.51033L1.73103 3.62033V8.99051C1.73104 9.25716 1.83131 9.51406 2.01194 9.71021C2.19257 9.90637 2.44035 10.0274 2.7061 10.0494L2.79353 10.053H12.2042C12.471 10.053 12.728 9.95263 12.9241 9.77188C13.1203 9.59112 13.2413 9.34319 13.2631 9.07733L13.2667 8.99051V3.62033ZM12.2042 0.945871H2.79353C2.52688 0.945881 2.26998 1.04615 2.07383 1.22678C1.87767 1.40741 1.75661 1.6552 1.73467 1.92094L1.73103 2.00837V2.59366L7.49888 5.59294L13.2667 2.59366V2.00837C13.2667 1.74162 13.1664 1.48464 12.9856 1.28848C12.8048 1.09231 12.5569 0.97131 12.2911 0.949513L12.2042 0.945871Z" fill="#E3E3E3"/>
</svg>
