<svg width="14" height="13" viewBox="0 0 14 13" fill="none" xmlns="http://www.w3.org/2000/svg">
<path d="M12.9212 11.0155L13.2974 11.3836L12.9205 11.0155H12.9212ZM3.9578 9.52372L4.33323 9.15563L3.95709 9.52372H3.9578ZM1.02403 2.19501L0.648596 1.82761L1.02474 2.19571L1.02403 2.19501ZM9.51248 8.94529L9.83742 8.63185L9.08443 7.89566L8.76161 8.2091L9.51248 8.94529ZM10.9246 8.50039L12.2834 9.21928L12.7918 8.30735L11.4337 7.58914L10.9246 8.50039ZM12.5444 10.6474L11.5347 11.6251L12.2863 12.3606L13.2959 11.3836L12.5444 10.6474ZM10.9189 11.9392C9.88791 12.0333 7.22149 11.9496 4.33323 9.15563L3.58094 9.89113C6.73229 12.9404 9.73219 13.0898 11.0185 12.9729L10.9182 11.9392H10.9189ZM4.33323 9.15563C1.58077 6.49177 1.12428 4.25206 1.0674 3.27993L0.00225644 3.33874C0.0733609 4.56204 0.638641 7.04461 3.58094 9.89113L4.33323 9.15563ZM5.31091 4.87962L5.51498 4.68174L4.76412 3.94624L4.56005 4.14343L5.31163 4.87893L5.31091 4.87962ZM5.6771 2.16665L4.78119 1.00147L3.92722 1.62419L4.82314 2.78867L5.6771 2.16665ZM1.76565 0.747538L0.649307 1.82692L1.40159 2.56311L2.51722 1.48373L1.76565 0.747538ZM4.93548 4.51153C4.55863 4.14343 4.55863 4.14343 4.55863 4.14482H4.55721L4.55507 4.14758C4.5215 4.18093 4.49126 4.2173 4.46477 4.25621C4.42637 4.31157 4.38442 4.38422 4.34887 4.47624C4.26229 4.71378 4.24072 4.96917 4.2863 5.21728C4.38158 5.81578 4.80536 6.60663 5.89042 7.65695L6.6427 6.92076C5.62662 5.93825 5.38486 5.34044 5.34007 5.05814C5.31874 4.92391 5.34078 4.85748 5.34718 4.84226C5.35073 4.83257 5.35215 4.83188 5.34718 4.83811C5.34091 4.8477 5.33377 4.85674 5.32585 4.86509L5.31874 4.87201C5.31644 4.87416 5.31407 4.87624 5.31163 4.87824L4.93477 4.51153H4.93548ZM5.89042 7.65695C6.97618 8.70727 7.79317 9.11688 8.40893 9.20821C8.72393 9.25526 8.97777 9.2179 9.17046 9.14802C9.27822 9.10921 9.379 9.0541 9.4691 8.98473C9.48134 8.97477 9.4932 8.96439 9.50465 8.95359L9.50963 8.94944L9.51176 8.94736L9.51248 8.94598C9.51248 8.94598 9.51319 8.94529 9.13704 8.57719C8.76019 8.2091 8.76232 8.2084 8.76232 8.2084L8.76375 8.20702L8.76517 8.20564L8.76943 8.20218L8.77654 8.19526C8.78509 8.18779 8.79412 8.18086 8.80356 8.1745C8.81067 8.16966 8.80854 8.17173 8.79859 8.17588C8.78081 8.18211 8.71113 8.20356 8.57105 8.1828C8.27668 8.13852 7.65807 7.90327 6.6427 6.92076L5.89042 7.65695ZM4.78119 1.00078C4.05592 0.0597792 2.63099 -0.0896733 1.76565 0.747538L2.51722 1.48373C2.8955 1.11771 3.56672 1.15576 3.92722 1.62419L4.78047 1.00078H4.78119ZM1.06811 3.28062C1.05389 3.04122 1.16695 2.79075 1.40159 2.5638L0.648596 1.82761C0.266765 2.19709 -0.0340068 2.72017 0.00225644 3.33874L1.06811 3.28062ZM11.5347 11.6251C11.3399 11.8146 11.1294 11.9212 10.9196 11.9399L11.0185 12.9729C11.5411 12.9252 11.9684 12.6691 12.287 12.3612L11.5347 11.6251ZM5.51498 4.68174C6.21536 4.00436 6.26727 2.93397 5.67781 2.16734L4.82385 2.78936C5.1104 3.1623 5.06774 3.65148 4.76341 3.94693L5.51498 4.68174ZM12.2841 9.21998C12.865 9.52718 12.9554 10.2509 12.5451 10.6481L13.2974 11.3836C14.2502 10.4613 13.9565 8.92315 12.7925 8.30804L12.2841 9.21998ZM9.83742 8.63254C10.1105 8.36823 10.5499 8.30319 10.9253 8.50108L11.4344 7.58984C10.6637 7.18161 9.70801 7.29439 9.08514 7.89635L9.83742 8.63254Z" fill="#E3E3E3"/>
</svg>
